<svg xmlns="http://www.w3.org/2000/svg" xmlns:xlink="http://www.w3.org/1999/xlink" id="hero-laptop" viewBox="0 0 980.605 767.06"><defs><linearGradient id="hero_gradient" y1="768" x2="1" y2="768" gradientTransform="matrix(496.43522 0 0 -496.43522 649.414 381490.405)" gradientUnits="userSpaceOnUse"><stop offset="0" stop-color="#45B29A" stop-opacity=".5"/><stop offset="1" stop-color="#45B29A" stop-opacity="0"/></linearGradient><linearGradient id="hero_gradient_2" y1="768.45" x2="1" y2="768.45" gradientTransform="matrix(93801.86712 0 0 -93801.86712 80445.236 72082334.593)" gradientUnits="userSpaceOnUse"><stop offset="0" stop-color="#f75f37" stop-opacity=".155"/><stop offset=".02" stop-color="#f75f37" stop-opacity=".155"/><stop offset="1" stop-color="#0f054c" stop-opacity=".5"/></linearGradient><linearGradient id="hero_gradient_3" y1="768" x2="1" y2="768" gradientTransform="matrix(-441.82685 0 0 441.82685 797.71 -338801.64)" gradientUnits="userSpaceOnUse"><stop offset="0" stop-color="#5761d7"/><stop offset=".18" stop-color="#5c66d9"/><stop offset=".39" stop-color="#6a73df"/><stop offset=".61" stop-color="#8289e8"/><stop offset=".85" stop-color="#a3a7f5"/><stop offset="1" stop-color="#bcbeff"/></linearGradient><linearGradient id="hero_gradient_4" y1="768" x2="1" y2="768" gradientTransform="matrix(-441.82685 0 0 441.82685 657.538 -338811.922)" gradientUnits="userSpaceOnUse"><stop offset="0" stop-color="#c0bff6"/><stop offset=".29" stop-color="#c5c4f7"/><stop offset=".64" stop-color="#d3d2f9"/><stop offset="1" stop-color="#e9e9fd"/></linearGradient><linearGradient id="hero_gradient_5" y1="769.195" x2="1" y2="769.195" gradientTransform="matrix(37188.92358 0 0 -37188.92358 14547.48 28605861.33)" xlink:href="#hero_gradient_4"/><linearGradient id="hero_gradient_6" y1="739.164" x2="1" y2="739.164" gradientTransform="matrix(-1097.23571 0 0 1097.23571 -2042.072 -810639.844)" xlink:href="#hero_gradient_3"/><linearGradient id="hero_gradient_7" y1="767.397" x2="1" y2="767.397" gradientTransform="matrix(-74209.35977 0 0 74209.35977 -26041.628 -56947526.403)" xlink:href="#hero_gradient_3"/><linearGradient id="hero_gradient_8" y1="768.615" x2="1" y2="768.615" gradientTransform="matrix(74290.41331 0 0 -74290.41331 52163.459 57101215.966)" xlink:href="#hero_gradient_4"/><linearGradient id="hero_gradient_9" y1="768.982" x2="1" y2="768.982" gradientTransform="scale(1958.13601 -1958.13601) rotate(-22.966 -1896.11 367.912)" gradientUnits="userSpaceOnUse"><stop offset="0" stop-color="#45B29A" stop-opacity=".5"/><stop offset=".02" stop-color="#f75f37" stop-opacity=".5"/><stop offset=".13" stop-color="#c14a3c" stop-opacity=".5"/><stop offset=".24" stop-color="#913840" stop-opacity=".5"/><stop offset=".35" stop-color="#692844" stop-opacity=".5"/><stop offset=".47" stop-color="#491b47" stop-opacity=".5"/><stop offset=".59" stop-color="#2f1149" stop-opacity=".5"/><stop offset=".72" stop-color="#1d0a4b" stop-opacity=".5"/><stop offset=".85" stop-color="#12064c" stop-opacity=".5"/><stop offset="1" stop-color="#0f054c" stop-opacity=".5"/></linearGradient><linearGradient id="hero_gradient_10" y1="767.272" x2="1" y2="767.272" gradientTransform="scale(4172.0405 -4172.0405) rotate(-55.446 -730.899 381.845)" gradientUnits="userSpaceOnUse"><stop offset="0" stop-color="#bcbeff"/><stop offset=".23" stop-color="#aaadf8"/><stop offset=".68" stop-color="#7c83e5"/><stop offset="1" stop-color="#5761d7"/></linearGradient><linearGradient id="hero_gradient_11" y1="769.001" x2="1" y2="769.001" gradientTransform="matrix(6953.59025 0 0 -6953.59025 6355.448 5347552.644)" gradientUnits="userSpaceOnUse"><stop offset="0" stop-color="#e9e9fd"/><stop offset=".36" stop-color="#d3d2f9"/><stop offset=".71" stop-color="#c5c4f7"/><stop offset="1" stop-color="#c0bff6"/></linearGradient><linearGradient id="hero_gradient_12" x1="0" y1="767.999" x2=".999" y2="767.999" gradientTransform="scale(123.86872 -123.86872) rotate(-29.991 -1439.069 368.74)" xlink:href="#hero_gradient_10"/><linearGradient id="hero_gradient_13" y1="768" x2="1" y2="768" gradientTransform="scale(110.44342 -110.44342) rotate(-29.982 -1440.07 366.791)" gradientUnits="userSpaceOnUse"><stop offset="0" stop-color="#5761d7"/><stop offset=".24" stop-color="#5761d7"/><stop offset=".39" stop-color="#7a82e5"/><stop offset=".55" stop-color="#979cf0"/><stop offset=".7" stop-color="#acaff8"/><stop offset=".85" stop-color="#b8bafd"/><stop offset="1" stop-color="#bcbeff"/></linearGradient><linearGradient id="hero_gradient_14" x1="0" y1="767.999" x2="1" y2="767.999" gradientTransform="matrix(135.15217 0 0 -135.15217 840.357 104413.13)" xlink:href="#hero_gradient_11"/><linearGradient id="hero_gradient_15" y1="770.708" y2="770.708" gradientTransform="matrix(6530.36317 0 0 -6530.36317 33161.484 5033619.264)" xlink:href="#hero_gradient_11"/><linearGradient id="hero_gradient_16" x1="0" y1="768" x2="1" y2="768" gradientTransform="matrix(0 -218.48608 -218.48608 0 168705.255 649.192)" gradientUnits="userSpaceOnUse"><stop offset="0" stop-color="#6B5858" stop-opacity=".5"/><stop offset="1" stop-color="#6B5858" stop-opacity="0"/></linearGradient><linearGradient id="hero_gradient_17" y1="768" x2="1" y2="768" gradientTransform="matrix(126.61202 0 0 -126.61202 194.343 97792.836)" gradientUnits="userSpaceOnUse"><stop offset="0" stop-color="#bcbeff"/><stop offset=".15" stop-color="#a3a7f5"/><stop offset=".39" stop-color="#8289e8"/><stop offset=".61" stop-color="#6a73df"/><stop offset=".82" stop-color="#5c66d9"/><stop offset="1" stop-color="#5761d7"/></linearGradient><linearGradient id="hero_gradient_19" y1="770.434" x2="1" y2="770.434" gradientTransform="matrix(6099.03054 0 0 -6099.03054 205.752 4699434.363)" xlink:href="#hero_gradient_4"/><linearGradient id="hero_gradient_20" y1="770.607" x2="1" y2="770.607" gradientTransform="matrix(5281.64223 0 0 -5281.64223 415.674 4070604.154)" xlink:href="#hero_gradient_4"/><linearGradient id="hero_gradient_21" y1="768" x2="1" y2="768" gradientTransform="matrix(0 204.39032 204.39032 0 -156713.907 349.733)" gradientUnits="userSpaceOnUse"><stop offset="0" stop-color="#f75f37" stop-opacity="0"/><stop offset=".98" stop-color="#f75f37" stop-opacity=".5"/><stop offset="1" stop-color="#45B29A" stop-opacity=".5"/></linearGradient><radialGradient id="hero_gradient_18" cx="0" cy="768" r="1" gradientTransform="matrix(73.58078 0 0 -73.63513 317.748 57125.944)" gradientUnits="userSpaceOnUse"><stop offset="0" stop-color="#6B5858" stop-opacity=".5"/><stop offset="1" stop-color="#0f054c" stop-opacity=".5"/></radialGradient><style>.cls-1{fill:#6b5858}.cls-2{fill:#45b29a}.cls-19{fill:#24126a;fill-opacity:.8}</style></defs><g id="laptop"><path d="M535.206 336.585l33.847-201.077-2.628-1.13 3.995-2.262a2.969 2.969 0 013.153.236l270.672 156.37a7.658 7.658 0 013.495 6.89l-34.162 202.68a2.475 2.475 0 01-1.42 2.052l-3.993 2.314-.684-3.735h.237L538.674 343.501a7.654 7.654 0 01-3.468-6.916z" transform="translate(-194.106 -.583)" fill="url(#hero_gradient_5)"/><path d="M842.72 294.14l4.469-1.973a6.057 6.057 0 01.551 3.366l-34.162 202.68a2.474 2.474 0 01-1.42 2.053l-3.994 2.313-.683-3.734h.236l-13.638-7.889z" transform="translate(-194.106 -.583)" fill="url(#hero_gradient_6)"/><path d="M534.471 345.921l270.672 156.37c2.103 1.21 3.89.526 4.257-1.657l34.163-202.655a7.628 7.628 0 00-3.521-6.89L569.344 134.746c-2.103-1.183-3.89-.5-4.257 1.657l-34.163 202.68a7.625 7.625 0 003.548 6.838z" transform="translate(-194.106 -.583)" fill="#24126a"/><path d="M568.421 138.48l271.934 157.053-34.346 203.18-271.75-156.948 34.163-203.285z" transform="translate(-194.106 -.583)" fill-opacity=".51"/><path d="M364.314 441.858l14.77 7.73 148.133-85.573a10.683 10.683 0 019.671.394l255.43 147.586c2.443-1.368 13.612-6.732 13.612-6.732l-5.413 8.809a3.286 3.286 0 01-1.525 1.684L643.001 605.88a10.69 10.69 0 01-9.671-.395L371.908 454.428a4.58 4.58 0 01-2.181-2.34l-5.414-10.23z" transform="translate(-194.106 -.583)" fill="url(#hero_gradient_7)"/><path d="M366.6 444.303l268.045 154.792a11.031 11.031 0 009.907.394l159.749-92.36c2.628-1.472 2.207-4.024-.71-5.733L535.73 346.605a11.028 11.028 0 00-9.907-.395L365.89 438.57c-2.524 1.473-2.208 4.023.709 5.733z" transform="translate(-194.106 -.583)" fill="#f4f4f4"/><path d="M366.6 443.093l268.045 154.792a11.11 11.11 0 009.907.421l159.88-92.386a3.097 3.097 0 001.604-1.867 2.63 2.63 0 01-1.603 3.077l-159.881 92.36a11.028 11.028 0 01-9.907-.395L366.6 444.303c-1.892-1.104-2.628-2.63-2.313-3.866a4.55 4.55 0 002.313 2.656z" transform="translate(-194.106 -.583)" fill="#fff"/><g opacity=".8"><path class="cls-19" d="M489.85 427.157l-8.516-4.917c-.682-.395-.603-1.078.184-1.552l10.04-5.786a3.016 3.016 0 012.627 0l8.488 4.918c.683.394.604 1.078-.184 1.526l-10.038 5.81a2.967 2.967 0 01-2.602 0zm13.138 7.573l-8.515-4.891c-.683-.395-.604-1.105.184-1.552l10.038-5.812a3.024 3.024 0 012.628 0l8.489 4.918c.683.394.604 1.078-.184 1.551l-10.039 5.787a2.89 2.89 0 01-2.601 0zm13.115 7.704l-8.488-4.917c-.684-.395-.605-1.078.184-1.525l10.038-5.812a2.964 2.964 0 012.628 0l8.515 4.917c.683.395.603 1.078-.184 1.526l-10.04 5.811a3.019 3.019 0 01-2.653 0zm18.184-6.364l-8.515-4.918c-.683-.394-.604-1.078.184-1.551l8.436-4.866a2.964 2.964 0 012.628 0l8.514 4.919c.684.394.605 1.078-.184 1.525l-8.435 4.865a2.894 2.894 0 01-2.628.026zm13.113 7.574l-8.489-4.918c-.683-.394-.604-1.078.184-1.525l8.435-4.865a2.888 2.888 0 012.628 0l8.515 4.891c.683.394.604 1.105-.21 1.552l-8.41 4.865a3.019 3.019 0 01-2.653 0zm13.14 7.602l-8.488-4.918c-.683-.394-.604-1.078.184-1.552l8.436-4.865a2.972 2.972 0 012.628 0l8.514 4.918c.683.394.578 1.078-.21 1.525l-8.41 4.892a3.018 3.018 0 01-2.653 0zm13.14 7.574l-8.515-4.892c-.683-.394-.578-1.105.21-1.552l8.41-4.865a3.024 3.024 0 012.628 0l8.488 4.892c.683.395.605 1.105-.184 1.552l-8.435 4.865a2.969 2.969 0 01-2.603 0zm13.138 7.6l-8.514-4.919c-.683-.394-.604-1.078.183-1.525l8.436-4.892a3.026 3.026 0 012.628 0l8.489 4.919c.682.395.603 1.078-.185 1.552l-8.436 4.864a2.966 2.966 0 01-2.601 0zm13.139 7.573l-8.515-4.892c-.683-.393-.604-1.103.184-1.55l8.436-4.866a2.972 2.972 0 012.628 0l8.514 4.918c.683.395.605 1.078-.184 1.525l-8.41 4.865a2.886 2.886 0 01-2.653 0zm13.115 7.6l-8.489-4.97c-.683-.394-.604-1.079.185-1.526l8.435-4.865a2.893 2.893 0 012.628-.132l8.515 4.918c.683.395.578 1.078-.21 1.552l-8.41 4.865a3.017 3.017 0 01-2.654.158zm13.138 7.599l-8.488-4.917c-.683-.395-.604-1.078.184-1.552l8.435-4.864a2.964 2.964 0 012.628 0l8.514 4.917c.684.394.58 1.078-.21 1.525l-8.409 4.866a2.944 2.944 0 01-2.654.025zm13.14 7.574l-8.515-4.917c-.683-.395-.578-1.078.21-1.525l8.41-4.866a2.947 2.947 0 012.628-.131l8.488 4.918c.683.394.604 1.078-.184 1.55l-8.435 4.867a2.972 2.972 0 01-2.603.104zm13.138 7.602l-8.514-4.917c-.683-.395-.604-1.078.183-1.552l8.436-4.865a3.016 3.016 0 012.628 0l8.489 4.917c.682.395.603 1.078-.184 1.526l-8.436 4.891a2.967 2.967 0 01-2.602 0zm-98.859-71.898l-8.514-4.919c-.684-.395-.578-1.078.21-1.525l8.409-4.865a2.94 2.94 0 012.628 0l8.488 4.917c.684.395.604 1.078-.184 1.552l-8.435 4.865a2.97 2.97 0 01-2.602-.026zm-13.323-7.707l-8.515-4.918c-.684-.395-.605-1.078.184-1.525l8.435-4.865a2.937 2.937 0 012.628 0l8.462 4.786c.683.394.604 1.105-.183 1.552l-8.437 4.865a2.968 2.968 0 01-2.574.105zm-13.352-7.706l-18.394-10.52c-.684-.394-.605-1.078.184-1.525l8.435-4.865a2.89 2.89 0 012.628 0l18.395 10.52c.683.394.604 1.078-.184 1.55l-8.436 4.867a2.968 2.968 0 01-2.628-.027zm9.33-9.388l-14.874-8.574c-.683-.394-.604-1.104.184-1.551l8.436-4.866a3.024 3.024 0 012.627 0l14.848 8.574c.683.394.604 1.078-.184 1.551l-8.436 4.866a2.969 2.969 0 01-2.601 0zm30.483 32.4l-8.514-4.918c-.683-.394-.604-1.078.21-1.551l8.41-4.865a3.016 3.016 0 012.628 0l8.487 4.917c.683.395.605 1.079-.183 1.526l-8.436 4.865a2.89 2.89 0 01-2.602.026zm13.139 7.625l-8.515-4.917c-.683-.395-.604-1.079.184-1.526l8.435-4.865a2.89 2.89 0 012.628-.131l8.515 4.917c.684.395.605 1.105-.184 1.552l-8.435 4.865a2.97 2.97 0 01-2.628.105zm13.115 7.548l-8.488-4.918c-.683-.395-.605-1.078.184-1.552l8.435-4.865a2.964 2.964 0 012.628 0l8.515 4.918c.683.394.604 1.079-.184 1.525l-8.436 4.892a3.019 3.019 0 01-2.654 0zm13.139 7.574l-8.489-4.918c-.683-.394-.604-1.079.185-1.525l8.435-4.866a2.89 2.89 0 012.628 0l8.514 4.892c.683.394.578 1.105-.21 1.552l-8.41 4.865a3.019 3.019 0 01-2.653 0zm13.139 7.602l-8.514-4.919c-.684-.393-.578-1.078.21-1.551l8.409-4.865a3.024 3.024 0 012.628 0L630.52 464c.684.394.605 1.078-.184 1.552l-8.436 4.865a2.966 2.966 0 01-2.601 0zm13.138 7.573l-8.514-4.891c-.683-.394-.604-1.105.183-1.552l8.437-4.865a3.025 3.025 0 012.628 0l8.487 4.918c.683.394.605 1.078-.183 1.525l-8.436 4.865a2.892 2.892 0 01-2.602 0zm13.141 7.6l-8.515-4.918c-.683-.394-.603-1.078.184-1.525l8.436-4.892a2.97 2.97 0 012.627 0l8.515 4.918c.684.395.605 1.079-.184 1.552l-8.435 4.865a2.964 2.964 0 01-2.628 0zm13.113 7.599l-8.488-4.918c-.684-.393-.605-1.103.184-1.55l8.435-4.866a2.972 2.972 0 012.628 0l8.515 4.918c.683.395.604 1.078-.184 1.525l-8.436 4.865a2.939 2.939 0 01-2.654.027zm13.139 7.574l-8.488-4.917c-.684-.395-.605-1.078.184-1.525l8.435-4.866a2.888 2.888 0 012.628 0l8.514 4.918c.683.395.579 1.078-.21 1.552l-8.41 4.865a3.015 3.015 0 01-2.653-.027zm23.361 13.491l-18.552-10.73c-.683-.394-.605-1.077.184-1.525l8.435-4.865a2.889 2.889 0 012.628 0l18.553 10.703c.684.395.604 1.078-.184 1.552l-8.436 4.865a2.965 2.965 0 01-2.628 0zm25.571-14.779l-15.767-9.045c-.683-.395-.604-1.08.183-1.526l8.437-4.865a2.888 2.888 0 012.628 0l15.766 9.046c.683.395.605 1.105-.183 1.552l-8.436 4.865a2.968 2.968 0 01-2.628-.027zM589.76 438.568l-8.514-4.918c-.683-.394-.578-1.078.21-1.525l8.41-4.865a2.937 2.937 0 012.627 0l8.489 4.918c.683.394.604 1.078-.184 1.552l-8.41 4.865a3.022 3.022 0 01-2.628-.027zm-13.453-7.784l-8.514-4.891c-.683-.394-.578-1.105.21-1.552l8.41-4.865a3.024 3.024 0 012.627 0l8.489 4.918c.683.394.604 1.078-.184 1.525l-8.436 4.865a2.891 2.891 0 01-2.602 0zm-13.455-7.758l-8.514-4.918c-.683-.394-.605-1.078.184-1.552l8.435-4.864a2.972 2.972 0 012.628 0l8.514 4.918c.683.393.605 1.078-.184 1.525L565.48 423a2.885 2.885 0 01-2.628.026zm-13.482-7.784l-8.383-4.918c-.683-.394-.604-1.078.184-1.525l8.435-4.892a2.972 2.972 0 012.628 0l8.515 4.918c.683.395.577 1.079-.21 1.552l-8.41 4.865a3.019 3.019 0 01-2.759 0zm53.531 30.928l-8.514-4.918c-.683-.394-.579-1.078.21-1.55l8.41-4.867a3.024 3.024 0 012.627 0l8.488 4.918c.683.395.604 1.078-.183 1.526l-8.437 4.891a2.968 2.968 0 01-2.6 0zm13.139 7.574l-8.515-4.917c-.683-.395-.605-1.078.184-1.527l8.436-4.865a2.888 2.888 0 012.627 0l8.515 4.892c.683.395.605 1.105-.184 1.552l-8.435 4.865a2.965 2.965 0 01-2.628 0zm13.139 7.6l-8.514-4.918c-.684-.394-.605-1.079.184-1.551l8.435-4.865a2.963 2.963 0 012.628 0l8.515 4.917c.682.395.603 1.078-.184 1.525l-8.436 4.891a2.964 2.964 0 01-2.628 0zm13.115 7.573l-8.489-4.891c-.683-.394-.604-1.104.184-1.551l8.436-4.866a2.972 2.972 0 012.628 0l8.513 4.918c.684.395.58 1.078-.21 1.525l-8.409 4.865a2.934 2.934 0 01-2.653 0zm13.138 7.706l-8.514-4.917c-.683-.395-.578-1.078.21-1.526l8.41-4.89a3.016 3.016 0 012.627 0l8.489 4.916c.683.395.604 1.079-.184 1.552l-8.435 4.865a2.968 2.968 0 01-2.603 0zm13.139 7.496l-8.514-4.865c-.683-.394-.579-1.105.21-1.552l8.41-4.865a3.024 3.024 0 012.627 0l8.488 4.918c.683.394.604 1.078-.184 1.525l-8.436 4.865a2.886 2.886 0 01-2.601-.026zm13.141 7.574l-8.515-4.918c-.683-.395-.604-1.079.184-1.526l8.437-4.865a2.884 2.884 0 012.627-.132l8.514 4.918c.684.394.605 1.079-.184 1.551l-8.435 4.866a2.97 2.97 0 01-2.628.106zm13.138 7.599l-8.514-4.918c-.683-.395-.605-1.078.184-1.552l8.435-4.865a2.964 2.964 0 012.628 0l8.515 4.917c.683.395.604 1.08-.184 1.527l-8.436 4.864a2.891 2.891 0 01-2.627.027zm13.114 7.574l-8.489-4.918c-.683-.395-.605-1.078.184-1.526l8.435-4.864a2.889 2.889 0 012.628 0l8.514 4.917c.684.395.58 1.104-.21 1.551l-8.409 4.865a3.019 3.019 0 01-2.653-.025zM582.85 419.794l-8.514-4.892c-.683-.395-.579-1.105.21-1.552l8.41-4.865a3.016 3.016 0 012.628 0l8.487 4.917c.683.395.605 1.078-.183 1.525l-8.436 4.866a2.891 2.891 0 01-2.602 0zm-12.956-7.548l-8.514-4.917c-.684-.395-.605-1.08.183-1.527l8.436-4.864a2.888 2.888 0 012.628 0l8.514 4.891c.683.395.605 1.105-.184 1.552l-8.436 4.76a2.962 2.962 0 01-2.627.105zm-13.139-7.548l-8.487-4.918c-.684-.395-.605-1.078.183-1.525l8.436-4.865a2.89 2.89 0 012.628 0l8.514 4.917c.683.395.578 1.105-.21 1.552l-8.41 4.865a3.021 3.021 0 01-2.654-.026zm-13.139-7.548l-8.515-4.918c-.683-.393-.578-1.078.211-1.525l8.409-4.865a2.946 2.946 0 012.628 0l8.488 4.918c.683.394.605 1.079-.184 1.552l-8.41 4.733a2.968 2.968 0 01-2.627.105zm13.456-7.757l-8.489-4.813c-.683-.395-.604-1.079.184-1.552l2.786-1.604a2.964 2.964 0 012.628 0l8.514 4.918c.683.394.604 1.078-.184 1.525l-2.786 1.63a3.017 3.017 0 01-2.653-.105zm17.054 9.861l-8.488-4.918c-.684-.394-.605-1.105.184-1.552l2.785-1.604a2.973 2.973 0 012.628 0l8.515 4.918c.683.394.604 1.078-.184 1.525l-2.786 1.604a2.941 2.941 0 01-2.654.027zm13.032 7.496l-8.514-4.892c-.683-.395-.604-1.105.184-1.552l2.786-1.604a3.013 3.013 0 012.627 0l8.488 4.892c.684.42.605 1.104-.184 1.551l-2.785 1.604a2.891 2.891 0 01-2.602 0zm13.009 7.521l-8.514-4.892c-.683-.394-.578-1.104.184-1.551l2.812-1.604a2.886 2.886 0 012.627 0l8.515 4.891c.684.394.578 1.104-.21 1.552l-2.786 1.604a2.972 2.972 0 01-2.628 0zm13.009 7.519l-8.515-4.918c-.683-.395-.578-1.078.21-1.525l2.786-1.604a2.884 2.884 0 012.628-.132l8.514 4.918c.683.394.578 1.104-.21 1.551l-2.785 1.605a2.97 2.97 0 01-2.628.105zm72.66 42l-8.514-4.918c-.684-.395-.58-1.079.21-1.552l2.785-1.605a2.972 2.972 0 012.628 0l8.515 4.919c.683.395.578 1.078-.21 1.525l-2.786 1.604a2.886 2.886 0 01-2.628.026zm13.008 7.573l-8.487-4.917c-.683-.395-.605-1.105.183-1.552l2.787-1.604a2.964 2.964 0 012.628 0l8.514 4.917c.683.395.604 1.078-.185 1.525l-2.785 1.605a2.946 2.946 0 01-2.655.026zm12.957 7.444l-8.435-4.813c-.684-.394-.605-1.104.184-1.552l2.786-1.604a2.972 2.972 0 012.628 0l8.514 4.892c.683.395.604 1.104-.184 1.552l-2.786 1.603a2.943 2.943 0 01-2.707-.078zm13.139 7.521l-8.514-4.891c-.683-.395-.605-1.105.183-1.552l2.787-1.604a2.935 2.935 0 012.626 0l8.489 4.892c.683.394.605 1.104-.184 1.551l-2.786 1.604a2.967 2.967 0 01-2.601 0zm-128.95-58.935l-8.516-4.918c-.683-.395-.604-1.078.184-1.525l8.515-4.813a2.97 2.97 0 012.627 0l8.515 4.918c.683.394.605 1.078-.184 1.552l-8.435 4.865a2.966 2.966 0 01-2.707-.079zm13.138 7.6l-8.514-4.918c-.683-.395-.605-1.105.184-1.552l8.435-4.865a2.963 2.963 0 012.628 0l8.515 4.918c.682.394.604 1.078-.184 1.525l-8.436 4.865a2.893 2.893 0 01-2.628.027zm13.112 7.574l-8.487-4.919c-.683-.393-.604-1.078.184-1.525l8.436-4.865a2.893 2.893 0 012.628-.132l8.514 4.918c.683.395.578 1.078-.21 1.552l-8.41 4.865a3.02 3.02 0 01-2.654.106zm13.142 7.599l-8.515-4.918c-.656-.394-.578-1.078.21-1.552l8.41-4.865a3.026 3.026 0 012.628 0l8.488 4.918c.684.394.605 1.078-.184 1.526l-8.41 4.865a2.943 2.943 0 01-2.627.026zm13.138 7.574l-8.514-4.786c-.683-.395-.579-1.079.21-1.525l8.41-4.866a2.942 2.942 0 012.627-.131l8.488 4.918c.683.394.604 1.103-.183 1.551l-8.436 4.866a2.972 2.972 0 01-2.602-.027zm13.141 7.602l-8.515-4.918c-.683-.394-.603-1.078.185-1.551l8.54-4.866a2.972 2.972 0 012.628 0l8.515 4.918c.683.395.604 1.078-.184 1.525l-8.436 4.892a2.963 2.963 0 01-2.733 0zm13.139 7.574l-8.514-4.918c-.683-.394-.605-1.078.184-1.526l8.436-4.865a2.888 2.888 0 012.628 0l8.514 4.892c.683.394.604 1.105-.184 1.551l-8.436 4.866a2.964 2.964 0 01-2.628 0zm13.113 7.599l-8.489-4.917c-.683-.395-.604-1.078.185-1.526l8.435-4.89a2.964 2.964 0 012.628 0l8.514 4.916c.683.395.578 1.079-.21 1.552l-8.41 4.865a3.019 3.019 0 01-2.653 0zm13.139 7.574l-8.514-4.89c-.657-.396-.578-1.106.21-1.552l8.409-4.866a3.024 3.024 0 012.628 0l8.488 4.918c.683.394.605 1.078-.184 1.525l-8.41 4.865a2.937 2.937 0 01-2.628 0zm-180.169-59.751l-25.043-14.49c-.684-.394-.605-1.078.184-1.525l8.435-4.865a2.888 2.888 0 012.628 0l25.07 14.49c.683.395.578 1.078-.21 1.526l-8.41 4.864a2.936 2.936 0 01-2.653 0zm161.354 93.229l-25.045-14.491c-.682-.394-.578-1.078.21-1.525l8.41-4.865a2.938 2.938 0 012.628-.131l25.044 14.49c.683.394.605 1.078-.184 1.525l-8.383 4.76a2.937 2.937 0 01-2.68.237zm-52.505-13.595l-8.514-4.918c-.684-.395-.605-1.078.183-1.526l10.039-5.812a3.025 3.025 0 012.628 0l8.487 4.918c.684.394.605 1.078-.183 1.526l-10.039 5.812a2.969 2.969 0 01-2.602 0zm-95.393-55.017l-13.586-7.89c-.683-.394-.604-1.105.184-1.552l10.038-5.785a2.889 2.889 0 012.628-.132l13.613 7.89c.683.394.604 1.078-.185 1.551l-10.038 5.786a2.94 2.94 0 01-2.654.132zm82.856 47.705l-13.585-7.888c-.684-.395-.605-1.079.183-1.527l10.039-5.81a2.964 2.964 0 012.628 0l13.612 7.889c.684.394.605 1.078-.184 1.525l-10.065 5.707a3.018 3.018 0 01-2.628.104zm-63.909-36.845l-13.586-7.89c-.683-.394-.604-1.078.185-1.551l10.038-5.786a2.972 2.972 0 012.628 0l13.612 7.89c.683.395.604 1.078-.184 1.525l-10.038 5.812a3.019 3.019 0 01-2.655 0z" transform="translate(-194.106 -.583)"/><path class="cls-19" d="M552.681 448.564l59.128 34.187a.816.816 0 010 1.526l-10.222 5.916a2.937 2.937 0 01-2.628 0l-59.154-34.187 12.876-7.442zm113.761 73.161l9.46 5.47c.553.341.5.893-.157 1.262l-4.1 2.393a2.468 2.468 0 01-2.18 0l-9.487-5.47c-.552-.315-.474-.894.158-1.263l4.099-2.367a2.44 2.44 0 012.207-.025zM653.2 514.07l9.46 5.471c.55.342.498.895-.158 1.263l-4.1 2.392a2.468 2.468 0 01-2.181 0l-9.487-5.47c-.551-.315-.473-.893.158-1.261l4.125-2.368a2.475 2.475 0 012.182-.026zm-13.142-7.573l9.46 5.47c.579.316.5.894-.157 1.262l-4.1 2.367a2.468 2.468 0 01-2.18 0l-9.488-5.496c-.551-.316-.472-.868.158-1.262l4.126-2.367a2.388 2.388 0 012.181.026zm20.394 3.393l9.46 5.471c.552.315.499.894-.158 1.262l-4.1 2.367a2.467 2.467 0 01-2.18 0l-9.487-5.365c-.552-.342-.473-.894.157-1.262l4.127-2.394a2.468 2.468 0 012.18-.078z" transform="translate(-194.106 -.583)"/></g><path class="cls-1" d="M789.743 380.396a4.506 4.506 0 01-2.234-.63l-63.438-36.66a8.788 8.788 0 01-3.783-8.547l4.046-24.221a4.602 4.602 0 012.392-3.55 3.94 3.94 0 013.757.289l63.438 36.66a8.81 8.81 0 013.784 8.547l-4.047 24.22a4.704 4.704 0 01-2.392 3.577 3.738 3.738 0 01-1.524.315zm-61.52-72.872a2.442 2.442 0 00-1.05.237 3.556 3.556 0 00-1.761 2.63l-4.047 24.22a7.63 7.63 0 003.232 7.417l63.412 36.791a2.86 2.86 0 002.628.263 3.53 3.53 0 001.787-2.63l4.047-24.22a7.654 7.654 0 00-3.26-7.417l-63.279-36.79a3.617 3.617 0 00-1.708-.501zm54.53 114.503a4.674 4.674 0 01-2.26-.632l-63.438-36.66a8.914 8.914 0 01-3.784-8.546l4.074-24.22a4.572 4.572 0 012.365-3.551 3.94 3.94 0 013.757.29l63.49 36.659a8.862 8.862 0 013.784 8.547l-4.073 24.22a4.528 4.528 0 01-2.365 3.551 3.496 3.496 0 01-1.55.342zm-61.493-72.873a2.442 2.442 0 00-1.051.237 3.52 3.52 0 00-1.76 2.63l-4.022 24.352a7.654 7.654 0 003.26 7.416l63.436 36.66a2.907 2.907 0 002.628.262 3.516 3.516 0 001.76-2.76l4.074-24.221a7.656 7.656 0 00-3.258-7.416l-63.438-36.66a3.623 3.623 0 00-1.629-.5z" transform="translate(-194.106 -.583)"/><path class="cls-2" d="M603.085 217.401l-13.85-8.022.526-3.18 13.85 7.993zm11.799 6.811l-6.91-3.997.525-3.209 6.938 3.998z" transform="translate(-194.106 -.583)"/><path class="cls-1" d="M605.924 227.263l-5.913-3.419.526-3.182 5.912 3.392z" transform="translate(-194.106 -.583)"/><path class="cls-2" d="M615.778 232.97l-6.911-3.998.524-3.209 6.938 3.998zm10.17 14.097l-27.199-15.701.552-3.208 27.199 15.726z" transform="translate(-194.106 -.583)"/><path class="cls-1" d="M602.374 309.944l-27.198-15.727.525-3.208 27.199 15.727-.526 3.207z" transform="translate(-194.106 -.583)"/><path class="cls-2" d="M612.836 315.967l-6.912-3.998.525-3.208 6.911 4.024-.525 3.182z" transform="translate(-194.106 -.583)"/><path class="cls-1" d="M603.4 242.28l-5.913-3.42.553-3.182 5.886 3.392zm9.88 5.706l-6.938-3.998.552-3.208 6.911 3.997-.526 3.209zm-2.101 7.021l-14.952-8.626.55-3.208 14.954 8.652z" transform="translate(-194.106 -.583)"/><path class="cls-2" d="M621.191 260.794l-6.91-3.998.524-3.208 6.938 4.024-.552 3.182z" transform="translate(-194.106 -.583)"/><path class="cls-1" d="M631.256 266.605l-6.911-3.998.524-3.182 6.938 3.97-.551 3.21z" transform="translate(-194.106 -.583)"/><path class="cls-2" d="M647.495 275.993l-13.087-7.573.526-3.21 13.087 7.574z" transform="translate(-194.106 -.583)"/><path class="cls-1" d="M637.142 286.488l-6.938-4.024.553-3.182 6.91 3.997-.525 3.209z" transform="translate(-194.106 -.583)"/><path class="cls-2" d="M653.355 295.848l-13.087-7.547.526-3.21 13.113 7.575-.552 3.182z" transform="translate(-194.106 -.583)"/><path class="cls-1" d="M600.642 265.395l-6.912-3.998.526-3.208 6.937 3.998zm10.064 5.813l-6.912-3.998.526-3.207 6.912 3.996-.526 3.209z" transform="translate(-194.106 -.583)"/><path class="cls-2" d="M626.945 280.596l-13.113-7.573.552-3.209 13.087 7.574-.526 3.208z" transform="translate(-194.106 -.583)"/><path class="cls-1" d="M648.232 284.644l-6.938-3.997.553-3.208 6.91 3.998zm10.038 5.814l-6.912-3.998.526-3.208 6.938 3.997zm16.242 9.388l-13.087-7.574.525-3.208 13.113 7.574-.551 3.208z" transform="translate(-194.106 -.583)"/><path class="cls-2" d="M623.66 322.227l-6.911-3.998.526-3.182 6.912 3.997z" transform="translate(-194.106 -.583)"/><path class="cls-1" d="M639.902 331.615l-13.087-7.573.525-3.183 13.088 7.547-.526 3.21zm-41.784-51.203l-6.912-3.997.526-3.208 6.938 3.997zm16.242 9.388l-13.088-7.573.526-3.209 13.113 7.575-.551 3.208z" transform="translate(-194.106 -.583)"/><path class="cls-2" d="M631.204 334.822l-6.912-3.998.526-3.207 6.91 3.997z" transform="translate(-194.106 -.583)"/><path class="cls-1" d="M647.443 344.21l-13.088-7.573.526-3.208 13.088 7.574z" transform="translate(-194.106 -.583)"/><path class="cls-2" d="M646.656 259.031l-6.938-3.996.552-3.21 6.912 3.998z" transform="translate(-194.106 -.583)"/><path class="cls-1" d="M636.17 252.982l-6.91-3.997.525-3.209 6.937 3.997-.551 3.208zm26.699 15.438l-13.087-7.575.526-3.208 13.113 7.574-.552 3.209zm-61.65-10.94l-6.255-3.603.552-3.181 6.254 3.602-.551 3.183z" transform="translate(-194.106 -.583)"/><path class="cls-2" d="M619.745 268.183l-15.19-8.757.553-3.208 15.163 8.783-.526 3.182zm18.527 10.703l-15.189-8.757.525-3.21 15.19 8.758z" transform="translate(-194.106 -.583)"/><path class="cls-1" d="M672.515 273.968l-6.255-3.603.525-3.208 6.255 3.603-.525 3.208z" transform="translate(-194.106 -.583)"/><path class="cls-2" d="M691.013 284.673l-15.163-8.784.526-3.182 15.188 8.757-.551 3.209z" transform="translate(-194.106 -.583)"/><path class="cls-1" d="M709.54 295.375l-15.19-8.784.552-3.182 15.163 8.757-.526 3.21z" transform="translate(-194.106 -.583)"/><path class="cls-2" d="M607.762 277.756l-15.163-8.783.526-3.182 15.188 8.757-.551 3.208zm8.016 4.627l-4.652-2.709.526-3.207 4.651 2.708z" transform="translate(-194.106 -.583)"/><path class="cls-1" d="M623.793 287.012l-4.651-2.709.526-3.182 4.677 2.682z" transform="translate(-194.106 -.583)"/><path class="cls-2" d="M638.614 295.585l-11.458-6.627.526-3.208 11.485 6.628-.553 3.207zm16.634-15.121l-4.678-2.682.551-3.208 4.652 2.682-.525 3.208z" transform="translate(-194.106 -.583)"/><path class="cls-1" d="M670.07 289.037l-11.484-6.627.552-3.209 11.457 6.628-.526 3.208z" transform="translate(-194.106 -.583)"/><path class="cls-1" d="M673.17 290.826l-11.458-6.627.526-3.182 11.483 6.627-.551 3.182zm-61.046 41.21l-14.952-8.652.526-3.182 14.952 8.626z" transform="translate(-194.106 -.583)"/><path class="cls-2" d="M622.137 337.82l-6.938-3.997.551-3.208 6.912 3.998zm10.063 5.812l-6.937-3.998.552-3.208 6.912 3.997zm16.242 9.388l-13.113-7.574.552-3.208 13.087 7.574-.526 3.208z" transform="translate(-194.106 -.583)"/><path class="cls-1" d="M658.821 359.018l-6.91-3.998.525-3.209 6.91 3.998z" transform="translate(-194.106 -.583)"/><path class="cls-2" d="M675.062 368.406l-13.113-7.574.553-3.208 13.086 7.573z" transform="translate(-194.106 -.583)"/><path class="cls-1" d="M625.237 356.097l-6.911-3.998.526-3.208 6.937 3.997zm16.241 9.363l-13.086-7.548.525-3.209 13.114 7.575-.553 3.181zm-52.375-30.27l-6.937-3.997.552-3.181 6.91 3.996z" transform="translate(-194.106 -.583)"/><path class="cls-2" d="M599.141 341.03l-6.91-4.024.552-3.182 6.911 3.997zm16.242 9.362l-13.088-7.573.526-3.183 13.113 7.548-.551 3.208zm-13.219-15.884l-6.254-3.603.524-3.209 6.256 3.63-.526 3.182z" transform="translate(-194.106 -.583)"/><path class="cls-1" d="M620.664 345.21l-15.163-8.757.526-3.208 15.19 8.757zm18.526 10.705l-15.162-8.784.526-3.182 15.163 8.758-.526 3.208zm-55.21-15.438l-15.163-8.757.526-3.21 15.188 8.758z" transform="translate(-194.106 -.583)"/><path class="cls-2" d="M591.996 345.106l-4.678-2.683.552-3.208 4.651 2.682z" transform="translate(-194.106 -.583)"/><path class="cls-1" d="M600.009 349.733l-4.678-2.682.552-3.208 4.651 2.682zm14.823 8.576l-11.483-6.628.551-3.209 11.458 6.628-.526 3.209z" transform="translate(-194.106 -.583)"/><path class="cls-2" d="M617.933 360.095l-11.457-6.6.551-3.21 11.458 6.628-.552 3.182zm-27.121-48.599l-4.652-2.708.526-3.183 4.677 2.683-.551 3.208zm14.821 8.574l-11.458-6.627.526-3.209 11.483 6.627z" transform="translate(-194.106 -.583)"/><path class="cls-1" d="M620.797 328.8l-11.485-6.626.552-3.183 11.458 6.628-.525 3.182zm58.365 50.204l-6.91-3.997.524-3.209 6.912 3.998-.526 3.208z" transform="translate(-194.106 -.583)"/><path class="cls-2" d="M695.401 388.393l-13.086-7.574.525-3.209 13.087 7.574zm-41.809-24.143l-11.458-6.628.525-3.208 11.485 6.627-.552 3.208z" transform="translate(-194.106 -.583)"/><path class="cls-1" d="M668.755 372.981l-11.483-6.627.551-3.182 11.458 6.628-.526 3.181z" transform="translate(-194.106 -.583)"/><path class="cls-2" d="M582.718 279.753l-4.678-2.709.552-3.208 4.65 2.709z" transform="translate(-194.106 -.583)"/><path class="cls-1" d="M597.54 288.302l-11.458-6.627.526-3.208 11.457 6.627z" transform="translate(-194.106 -.583)"/><path class="cls-2" d="M612.675 297.058l-11.457-6.628.526-3.207 11.483 6.626-.552 3.209z" transform="translate(-194.106 -.583)"/><path class="cls-1" d="M794.421 305.395a4.126 4.126 0 01-1.97-.58 5.762 5.762 0 01-2.786-5.864 2.896 2.896 0 011.682-2.104 3.523 3.523 0 013.153.316 5.788 5.788 0 012.76 5.864 2.894 2.894 0 01-1.656 2.13 2.96 2.96 0 01-1.183.238zm-1.917-7.89a1.92 1.92 0 00-.79.157 2.076 2.076 0 00-1.155 1.5 4.84 4.84 0 002.338 4.865 2.63 2.63 0 002.339.29 2.156 2.156 0 001.157-1.5 4.817 4.817 0 00-2.365-4.865 3.076 3.076 0 00-1.524-.447zm12.771 14.149a4.133 4.133 0 01-1.998-.579 5.788 5.788 0 01-2.759-5.864 2.894 2.894 0 011.655-2.13 3.602 3.602 0 013.154.341 5.842 5.842 0 012.785 5.865 2.995 2.995 0 01-1.681 2.13 2.938 2.938 0 01-1.156.237zm-1.945-7.89a2.026 2.026 0 00-.788.158 2.154 2.154 0 00-1.156 1.499 4.813 4.813 0 002.365 4.866 2.627 2.627 0 002.312.288 2.152 2.152 0 001.157-1.498 4.84 4.84 0 00-2.34-4.865 3.254 3.254 0 00-1.55-.447zm15.164 11.678a2.627 2.627 0 01-4.152 1.5 5.263 5.263 0 01-2.628-5.26 2.626 2.626 0 014.126-1.5 5.264 5.264 0 012.654 5.26z" transform="translate(-194.106 -.583)"/><path class="cls-2" d="M619.247 200.728l-5.782-3.34.447-2.682 5.782 3.34-.447 2.682zm-8.411-4.865l-5.807-3.34.447-2.682 5.807 3.34-.447 2.682zm-8.329-4.813l-12.72-7.338.473-2.682 12.692 7.338-.445 2.682z" transform="translate(-194.106 -.583)"/></g></svg>